<svg width="500" height="500" viewBox="0 0 500 500" fill="none" xmlns="http://www.w3.org/2000/svg">
<rect width="500" height="500" rx="99" fill="url(#paint0_linear_110_653)"/>
<path fill-rule="evenodd" clip-rule="evenodd" d="M282.856 125.586C281.609 125.893 279.671 126.606 278.549 127.173C277.427 127.739 253.237 141.696 224.793 158.188L173.078 188.174H162.745C151.058 188.174 148.544 188.579 144.306 191.139C139.06 194.307 135.254 199.927 134.334 205.865C134.055 207.666 133.942 232.962 134.029 274.007C134.178 344.269 134.05 340.382 136.349 344.811C138.675 349.292 143.878 353.634 148.773 355.179C151.252 355.962 155.766 356 244.772 356C334.384 356 338.267 355.966 340.57 355.167C348.593 352.381 353.996 345.995 355.153 337.93C355.403 336.191 355.611 327.538 355.616 318.701L355.625 302.635L357.235 301.87C359.952 300.579 363.108 297.263 364.52 294.216L365.826 291.4L365.959 273.173C366.106 253.014 365.997 251.996 363.238 247.676C361.916 245.607 357.459 241.933 356.271 241.933C355.829 241.933 355.663 237.858 355.519 223.524C355.344 206.121 355.281 204.973 354.371 202.518C351.631 195.134 345.121 189.693 337.489 188.409C335.922 188.145 335.718 187.819 320.487 161.188C303.332 131.191 302.623 130.173 296.977 127.414C292.003 124.984 287.617 124.416 282.856 125.586ZM290.733 136.022C293.22 136.758 297.135 140.031 296.39 140.752C296.178 140.956 277.749 151.71 255.437 164.649L214.869 188.174H204.681C198.286 188.174 194.652 188.015 194.922 187.748C195.742 186.936 282.863 136.516 284.443 135.938C286.56 135.165 287.898 135.183 290.733 136.022ZM307.042 158.988C306.956 159.05 295.591 165.642 281.785 173.637L256.684 188.174H246.443C240.205 188.174 236.371 188.012 236.633 187.759C236.87 187.53 251.641 178.893 269.457 168.565L301.851 149.788L304.524 154.332C305.994 156.831 307.127 158.927 307.042 158.988ZM318.253 178.236L323.834 187.948L312.268 188.069C305.906 188.135 295.568 188.135 289.293 188.069L277.885 187.948L294.652 178.154C303.874 172.767 311.702 168.397 312.046 168.441C312.39 168.486 315.184 172.894 318.253 178.236ZM338.623 199.423C340.869 200.461 343.079 202.736 344.153 205.115C344.882 206.73 344.984 208.711 345.113 223.75L345.256 240.577L327.885 240.585C309.025 240.594 306.854 240.801 301.218 243.134C293.552 246.308 287.182 252.644 284.128 260.133C280.633 268.703 280.991 277.479 285.189 286.15C286.888 289.658 287.877 291.018 290.942 294.055C296.823 299.883 302.32 302.519 310.351 303.362C312.684 303.607 321.493 303.81 329.925 303.815L345.256 303.823L345.113 320.65C344.984 335.699 344.883 337.669 344.152 339.285C343.119 341.57 341.394 343.388 339.076 344.635L337.263 345.61H244.772C155.397 345.61 152.227 345.581 150.694 344.768C148.473 343.589 146.697 341.851 145.552 339.737L144.573 337.93L144.434 273.555C144.336 228.059 144.44 208.504 144.792 206.874C145.467 203.741 147.481 201.149 150.344 199.727L152.686 198.565L244.747 198.574C333.462 198.584 336.875 198.615 338.623 199.423ZM352.451 251.759C355.547 253.3 355.624 253.775 355.624 271.579C355.624 280.306 355.495 288.094 355.336 288.885C355.177 289.677 354.447 290.922 353.714 291.652L352.381 292.981H330.952C310.686 292.981 309.378 292.931 306.879 292.075C300.24 289.799 295.423 285.029 293.351 278.68C289.878 268.037 295.545 256.218 305.917 252.473C309.409 251.213 311.84 251.074 331.369 251.021C349.087 250.974 351.009 251.041 352.451 251.759ZM308.576 262.95C305.176 264.67 303.347 267.43 303.105 271.202C302.864 274.978 303.858 277.528 306.462 279.812C312.294 284.926 321.11 282.392 323.273 274.979C324.55 270.603 322.927 266.18 319.047 263.463C317.536 262.405 316.559 262.107 314.067 261.943C311.367 261.767 310.658 261.896 308.576 262.95Z" fill="white"/>
<defs>
<linearGradient id="paint0_linear_110_653" x1="-138.5" y1="-236" x2="541" y2="831.5" gradientUnits="userSpaceOnUse">
<stop stop-color="#C0D7E9"/>
<stop offset="1" stop-color="#48576F"/>
</linearGradient>
</defs>
</svg>
